<?xml version="1.0" encoding="UTF-8" standalone="no"?>
<!-- Created with Inkscape (http://www.inkscape.org/) -->

<svg
   version="1.1"
   id="svg2"
   xml:space="preserve"
   width="778.80634"
   height="370.58301"
   viewBox="0 0 778.80633 370.583"
   sodipodi:docname="itaphylogo.svg"
   inkscape:version="1.1.2 (b8e25be833, 2022-02-05)"
   xmlns:inkscape="http://www.inkscape.org/namespaces/inkscape"
   xmlns:sodipodi="http://sodipodi.sourceforge.net/DTD/sodipodi-0.dtd"
   xmlns="http://www.w3.org/2000/svg"
   xmlns:svg="http://www.w3.org/2000/svg"><defs
     id="defs6" /><sodipodi:namedview
     id="namedview4"
     pagecolor="#ffffff"
     bordercolor="#666666"
     borderopacity="1.0"
     inkscape:pageshadow="2"
     inkscape:pageopacity="0.0"
     inkscape:pagecheckerboard="0"
     showgrid="false"
     inkscape:zoom="1.0698529"
     inkscape:cx="319.67012"
     inkscape:cy="246.29554"
     inkscape:window-width="2560"
     inkscape:window-height="1351"
     inkscape:window-x="-9"
     inkscape:window-y="-9"
     inkscape:window-maximized="1"
     inkscape:current-layer="g10" /><g
     id="g8"
     inkscape:groupmode="layer"
     inkscape:label="My project"
     transform="matrix(1.3333333,0,0,1.3333333,207.61003,-180.71867)"><g
       id="g10"
       transform="rotate(90,94.6685,310.748)"><g
         id="g5332"
         style="font-size:12px;font-family:Dialog;fill:#000000;stroke:#000000;stroke-linecap:square;stroke-miterlimit:10"
         transform="matrix(0,-0.4571314,0.4571314,0,-84.90473,262.52524)"><line
           id="line3469"
           style="fill:none;stroke-width:2;stroke-miterlimit:10"
           y2="313.54999"
           x2="320.56"
           y1="313.54999"
           x1="320.56" /><line
           id="line3471"
           style="fill:none;stroke-width:2;stroke-linecap:round;stroke-miterlimit:10"
           y2="313.54999"
           x2="17.562"
           y1="313.54999"
           x1="320.56" /><line
           id="line3475"
           style="fill:none;stroke-width:2;stroke-miterlimit:10"
           y2="313.54999"
           x2="320.56"
           y1="313.54999"
           x1="320.56" /><line
           id="line3477"
           style="fill:none;stroke-width:2;stroke-miterlimit:10"
           y2="312.54999"
           x2="338.79999"
           y1="313.54999"
           x1="320.56" /><path
           id="path3479"
           d="m 339.56,312.55 a 19.026,19.026 0 0 0 -36.593,-6.2443"
           style="fill:none;stroke-width:2;stroke-miterlimit:10"
           inkscape:connector-curvature="0" /><line
           id="line3481"
           style="fill:none;stroke-width:2;stroke-miterlimit:10"
           y2="219.55"
           x2="93.561996"
           y1="306.42001"
           x1="302.92999" /><path
           id="path3483"
           d="M 93.562,219.55 A 245.69,245.69 0 0 0 77.974,274.616"
           style="fill:none;stroke-width:2;stroke-miterlimit:10"
           inkscape:connector-curvature="0" /><line
           id="line3485"
           style="fill:none;stroke-width:2;stroke-linecap:round;stroke-miterlimit:10"
           y2="266.54999"
           x2="21.562"
           y1="274.54999"
           x1="77.561996" /><path
           id="path3489"
           d="m 101.82,201.68 a 245.69,245.69 0 0 0 -8.2535,17.87"
           style="fill:none;stroke-width:2;stroke-miterlimit:10"
           inkscape:connector-curvature="0" /><line
           id="line3491"
           style="fill:none;stroke-width:2;stroke-miterlimit:10"
           y2="193.55"
           x2="84.561996"
           y1="201.55"
           x1="101.56" /><path
           id="path3493"
           d="m 84.562,193.55 a 264.76,264.76 0 0 0 -8.773,19.09"
           style="fill:none;stroke-width:2;stroke-miterlimit:10"
           inkscape:connector-curvature="0" /><line
           id="line3495"
           style="fill:none;stroke-width:2;stroke-miterlimit:10"
           y2="204.55"
           x2="58.562"
           y1="212.55"
           x1="75.561996" /><path
           id="path3497"
           d="m 58.562,204.55 a 283.77,283.77 0 0 0 -7.8007,21.065"
           style="fill:none;stroke-width:2;stroke-miterlimit:10"
           inkscape:connector-curvature="0" /><line
           id="line3499"
           style="fill:none;stroke-width:2;stroke-linecap:round;stroke-miterlimit:10"
           y2="219.55"
           x2="32.562"
           y1="225.55"
           x1="50.562" /><path
           id="path3503"
           d="m 67.759,184.65 a 283.77,283.77 0 0 0 -9.1961,19.9"
           style="fill:none;stroke-width:2;stroke-miterlimit:10"
           inkscape:connector-curvature="0" /><line
           id="line3505"
           style="fill:none;stroke-width:2;stroke-linecap:round;stroke-miterlimit:10"
           y2="175.55"
           x2="50.562"
           y1="184.55"
           x1="67.561996" /><path
           id="path3509"
           d="M 106.62,157.59 A 264.76,264.76 0 0 0 84.565,193.55"
           style="fill:none;stroke-width:2;stroke-miterlimit:10"
           inkscape:connector-curvature="0" /><line
           id="line3511"
           style="fill:none;stroke-width:2;stroke-linecap:round;stroke-miterlimit:10"
           y2="135.55"
           x2="75.561996"
           y1="157.55"
           x1="106.56" /><path
           id="path3515"
           d="m 339.14,317.67 a 19.026,19.026 0 0 0 0.4268,-5.1274"
           style="fill:none;stroke-width:2;stroke-miterlimit:10"
           inkscape:connector-curvature="0" /><line
           id="line3517"
           style="fill:none;stroke-width:2;stroke-miterlimit:10"
           y2="322.79999"
           x2="357.44"
           y1="317.79999"
           x1="339.20001" /><path
           id="path3519"
           d="m 357.56,322.55 a 38.079,38.079 0 0 0 0.5879,-2.9047"
           style="fill:none;stroke-width:2;stroke-miterlimit:10"
           inkscape:connector-curvature="0" /><line
           id="line3521"
           style="fill:none;stroke-width:2;stroke-miterlimit:10"
           y2="322.54999"
           x2="376.56"
           y1="319.54999"
           x1="358.20001" /><path
           id="path3523"
           d="m 376.56,322.55 a 56.719,56.719 0 0 0 0,-18"
           style="fill:none;stroke-width:2;stroke-miterlimit:10"
           inkscape:connector-curvature="0" /><line
           id="line3525"
           style="fill:none;stroke-width:2;stroke-miterlimit:10"
           y2="301.54999"
           x2="395.56"
           y1="304.54999"
           x1="376.56" /><path
           id="path3527"
           d="m 395.56,301.55 a 75.954,75.954 0 0 0 -4.8295,-17.071"
           style="fill:none;stroke-width:2;stroke-miterlimit:10"
           inkscape:connector-curvature="0" /><line
           id="line3529"
           style="fill:none;stroke-width:2;stroke-miterlimit:10"
           y2="277.54999"
           x2="407.56"
           y1="284.54999"
           x1="390.56" /><path
           id="path3531"
           d="M 407.56,277.55 A 94.154,94.154 0 0 0 265.18,237.4"
           style="fill:none;stroke-width:2;stroke-miterlimit:10"
           inkscape:connector-curvature="0" /><line
           id="line3533"
           style="fill:none;stroke-width:2;stroke-miterlimit:10"
           y2="99.546997"
           x2="164.56"
           y1="236.55"
           x1="264.56" /><path
           id="path3535"
           d="M 164.56,99.547 A 264.82,264.82 0 0 0 133.3,126.29"
           style="fill:none;stroke-width:2;stroke-miterlimit:10"
           inkscape:connector-curvature="0" /><line
           id="line3537"
           style="fill:none;stroke-width:2;stroke-linecap:round;stroke-miterlimit:10"
           y2="99.800003"
           x2="106.18"
           y1="126.17"
           x1="133.17999" /><path
           id="path3541"
           d="M 181.82,87.973 A 264.82,264.82 0 0 0 164.56,99.547"
           style="fill:none;stroke-width:2;stroke-miterlimit:10"
           inkscape:connector-curvature="0" /><line
           id="line3543"
           style="fill:none;stroke-width:2;stroke-miterlimit:10"
           y2="71.546997"
           x2="172.56"
           y1="87.546997"
           x1="181.56" /><path
           id="path3545"
           d="M 172.56,71.547 A 283.67,283.67 0 0 0 153.89,84.004"
           style="fill:none;stroke-width:2;stroke-miterlimit:10"
           inkscape:connector-curvature="0" /><line
           id="line3547"
           style="fill:none;stroke-width:2;stroke-linecap:round;stroke-miterlimit:10"
           y2="68.546997"
           x2="142.56"
           y1="83.546997"
           x1="153.56" /><path
           id="path3551"
           d="M 191.71,60.832 A 283.67,283.67 0 0 0 172.564,71.546"
           style="fill:none;stroke-width:2;stroke-miterlimit:10"
           inkscape:connector-curvature="0" /><line
           id="line3553"
           style="fill:none;stroke-width:2;stroke-linecap:round;stroke-miterlimit:10"
           y2="43.547001"
           x2="182.56"
           y1="60.547001"
           x1="191.56" /><path
           id="path3557"
           d="m 413.54,298.71 a 94.154,94.154 0 0 0 -5.9778,-21.163"
           style="fill:none;stroke-width:2;stroke-miterlimit:10"
           inkscape:connector-curvature="0" /><line
           id="line3559"
           style="fill:none;stroke-width:2;stroke-miterlimit:10"
           y2="295.54999"
           x2="432.56"
           y1="298.54999"
           x1="414.56" /><path
           id="path3561"
           d="m 432.56,295.55 a 113.44,113.44 0 0 0 -4.088,-16.972"
           style="fill:none;stroke-width:2;stroke-miterlimit:10"
           inkscape:connector-curvature="0" /><line
           id="line3563"
           style="fill:none;stroke-width:2;stroke-miterlimit:10"
           y2="272.54999"
           x2="446.56"
           y1="278.54999"
           x1="428.56" /><path
           id="path3565"
           d="m 446.56,272.55 a 132.5,132.5 0 0 0 -3.7491,-10.105"
           style="fill:none;stroke-width:2;stroke-miterlimit:10"
           inkscape:connector-curvature="0" /><line
           id="line3567"
           style="fill:none;stroke-width:2;stroke-miterlimit:10"
           y2="255.33"
           x2="460.28"
           y1="262.32999"
           x1="442.75" /><path
           id="path3569"
           d="m 460.56,255.55 a 151.54,151.54 0 0 0 -128,-93.062"
           style="fill:none;stroke-width:2;stroke-miterlimit:10"
           inkscape:connector-curvature="0" /><line
           id="line3571"
           style="fill:none;stroke-width:2;stroke-miterlimit:10"
           y2="86.698997"
           x2="338.56"
           y1="162.55"
           x1="332.56" /><path
           id="path3573"
           d="m 338.56,86.547 a 227.71,227.71 0 0 0 -71.104,5.5661"
           style="fill:none;stroke-width:2;stroke-miterlimit:10"
           inkscape:connector-curvature="0" /><line
           id="line3575"
           style="fill:none;stroke-width:2;stroke-miterlimit:10"
           y2="37.547001"
           x2="254.44"
           y1="92.041"
           x1="267.44" /><path
           id="path3577"
           d="m 254.56,37.547 a 283.78,283.78 0 0 0 -21.939,6.1876"
           style="fill:none;stroke-width:2;stroke-miterlimit:10"
           inkscape:connector-curvature="0" /><line
           id="line3579"
           style="fill:none;stroke-width:2;stroke-linecap:round;stroke-miterlimit:10"
           y2="25.547001"
           x2="226.56"
           y1="43.547001"
           x1="232.56" /><path
           id="path3583"
           d="m 276.66,33.181 a 283.78,283.78 0 0 0 -22.099,4.3654"
           style="fill:none;stroke-width:2;stroke-miterlimit:10"
           inkscape:connector-curvature="0" /><line
           id="line3585"
           style="fill:none;stroke-width:2;stroke-linecap:round;stroke-miterlimit:10"
           y2="14.547"
           x2="273.56"
           y1="32.547001"
           x1="276.56" /><path
           id="path3589"
           d="M 373.67,92.113 A 227.71,227.71 0 0 0 338.56,86.547"
           style="fill:none;stroke-width:2;stroke-miterlimit:10"
           inkscape:connector-curvature="0" /><line
           id="line3591"
           style="fill:none;stroke-width:2;stroke-miterlimit:10"
           y2="74.672997"
           x2="377.69"
           y1="92.041"
           x1="373.69" /><path
           id="path3593"
           d="M 377.56,74.547 A 245.7,245.7 0 0 0 359.496,70.9485"
           style="fill:none;stroke-width:2;stroke-miterlimit:10"
           inkscape:connector-curvature="0" /><line
           id="line3595"
           style="fill:none;stroke-width:2;stroke-miterlimit:10"
           y2="51.547001"
           x2="361.56"
           y1="70.546997"
           x1="359.56" /><path
           id="path3597"
           d="M 361.56,51.547 A 265.19,265.19 0 0 0 341.588,49.1934"
           style="fill:none;stroke-width:2;stroke-miterlimit:10"
           inkscape:connector-curvature="0" /><line
           id="line3599"
           style="fill:none;stroke-width:2;stroke-miterlimit:10"
           y2="30.628"
           x2="342.56"
           y1="48.977001"
           x1="341.56" /><path
           id="path3601"
           d="m 342.56,30.547 a 283.85,283.85 0 0 0 -22,-0.8538"
           style="fill:none;stroke-width:2;stroke-miterlimit:10"
           inkscape:connector-curvature="0" /><line
           id="line3603"
           style="fill:none;stroke-width:2;stroke-linecap:round;stroke-miterlimit:10"
           y2="10.547"
           x2="320.56"
           y1="29.547001"
           x1="320.56" /><path
           id="path3607"
           d="M 364.47,33.11 A 283.85,283.85 0 0 0 342.56,30.547"
           style="fill:none;stroke-width:2;stroke-miterlimit:10"
           inkscape:connector-curvature="0" /><line
           id="line3609"
           style="fill:none;stroke-width:2;stroke-linecap:round;stroke-miterlimit:10"
           y2="14.547"
           x2="367.56"
           y1="32.547001"
           x1="364.56" /><path
           id="path3613"
           d="M 402.62,61.373 A 265.19,265.19 0 0 0 361.56,51.547"
           style="fill:none;stroke-width:2;stroke-miterlimit:10"
           inkscape:connector-curvature="0" /><line
           id="line3615"
           style="fill:none;stroke-width:2;stroke-linecap:round;stroke-miterlimit:10"
           y2="25.547001"
           x2="414.56"
           y1="61.303001"
           x1="402.64001" /><path
           id="path3619"
           d="M 432.44,94.791 A 245.7,245.7 0 0 0 377.56,74.547"
           style="fill:none;stroke-width:2;stroke-miterlimit:10"
           inkscape:connector-curvature="0" /><line
           id="line3621"
           style="fill:none;stroke-width:2;stroke-linecap:round;stroke-miterlimit:10"
           y2="43.547001"
           x2="458.56"
           y1="94.546997"
           x1="432.56" /><path
           id="path3625"
           d="M 471.62,325.55 A 151.54,151.54 0 0 0 460.558,255.545"
           style="fill:none;stroke-width:2;stroke-miterlimit:10"
           inkscape:connector-curvature="0" /><line
           id="line3627"
           style="fill:none;stroke-width:2;stroke-miterlimit:10"
           y2="326.60999"
           x2="489.95999"
           y1="325.60999"
           x1="471.63" /><path
           id="path3629"
           d="m 490.56,326.55 a 170.5,170.5 0 0 0 0,-26"
           style="fill:none;stroke-width:2;stroke-miterlimit:10"
           inkscape:connector-curvature="0" /><line
           id="line3631"
           style="fill:none;stroke-width:2;stroke-miterlimit:10"
           y2="298.54999"
           x2="509.56"
           y1="300.54999"
           x1="490.56" /><path
           id="path3633"
           d="M 509.56,298.55 A 189.59,189.59 0 0 0 454.63,179.48"
           style="fill:none;stroke-width:2;stroke-miterlimit:10"
           inkscape:connector-curvature="0" /><line
           id="line3635"
           style="fill:none;stroke-width:2;stroke-miterlimit:10"
           y2="127.18"
           x2="506.79999"
           y1="179.28999"
           x1="454.69" /><path
           id="path3637"
           d="M 507.56,126.55 A 264.46,264.46 0 0 0 492.009,112.197"
           style="fill:none;stroke-width:2;stroke-miterlimit:10"
           inkscape:connector-curvature="0" /><line
           id="line3639"
           style="fill:none;stroke-width:2;stroke-miterlimit:10"
           y2="97.546997"
           x2="504.56"
           y1="111.55"
           x1="492.56" /><path
           id="path3641"
           d="M 504.56,97.547 A 283.75,283.75 0 0 0 487.28,83.941"
           style="fill:none;stroke-width:2;stroke-miterlimit:10"
           inkscape:connector-curvature="0" /><line
           id="line3643"
           style="fill:none;stroke-width:2;stroke-linecap:round;stroke-miterlimit:10"
           y2="68.546997"
           x2="498.56"
           y1="83.546997"
           x1="487.56" /><path
           id="path3647"
           d="M 521.2,112.91 A 283.75,283.75 0 0 0 504.56,97.547"
           style="fill:none;stroke-width:2;stroke-miterlimit:10"
           inkscape:connector-curvature="0" /><line
           id="line3649"
           style="fill:none;stroke-width:2;stroke-linecap:round;stroke-miterlimit:10"
           y2="99.546997"
           x2="534.56"
           y1="112.55"
           x1="521.56" /><path
           id="path3653"
           d="M 534.27,157.76 A 264.46,264.46 0 0 0 507.566,126.544"
           style="fill:none;stroke-width:2;stroke-miterlimit:10"
           inkscape:connector-curvature="0" /><line
           id="line3655"
           style="fill:none;stroke-width:2;stroke-linecap:round;stroke-miterlimit:10"
           y2="135.55"
           x2="565.56"
           y1="157.55"
           x1="534.56" /><path
           id="path3659"
           d="m 507.76,343.58 a 189.59,189.59 0 0 0 1.7994,-45.032"
           style="fill:none;stroke-width:2;stroke-miterlimit:10"
           inkscape:connector-curvature="0" /><line
           id="line3661"
           style="fill:none;stroke-width:2;stroke-miterlimit:10"
           y2="346.67001"
           x2="526.56"
           y1="343.67001"
           x1="508.20001" /><path
           id="path3663"
           d="m 526.56,346.55 a 208.63,208.63 0 0 0 2.0119,-49.001"
           style="fill:none;stroke-width:2;stroke-miterlimit:10"
           inkscape:connector-curvature="0" /><line
           id="line3665"
           style="fill:none;stroke-width:2;stroke-miterlimit:10"
           y2="295.54999"
           x2="547.56"
           y1="297.54999"
           x1="528.56" /><path
           id="path3667"
           d="M 547.56,295.55 A 227.71,227.71 0 0 0 523.42,210.11"
           style="fill:none;stroke-width:2;stroke-miterlimit:10"
           inkscape:connector-curvature="0" /><line
           id="line3669"
           style="fill:none;stroke-width:2;stroke-linecap:round;stroke-miterlimit:10"
           y2="174.72"
           x2="592.20001"
           y1="209.72"
           x1="524.20001" /><path
           id="path3673"
           d="m 548.28,313.55 a 227.71,227.71 0 0 0 -0.7125,-18"
           style="fill:none;stroke-width:2;stroke-miterlimit:10"
           inkscape:connector-curvature="0" /><line
           id="line3675"
           style="fill:none;stroke-width:2;stroke-miterlimit:10"
           y2="313.54999"
           x2="566.31"
           y1="313.54999"
           x1="548.27002" /><path
           id="path3677"
           d="m 566.56,313.55 a 246,246 0 0 0 -6.7112,-57.069"
           style="fill:none;stroke-width:2;stroke-miterlimit:10"
           inkscape:connector-curvature="0" /><line
           id="line3679"
           style="fill:none;stroke-width:2;stroke-miterlimit:10"
           y2="247.55"
           x2="596.56"
           y1="256.42001"
           x1="560.20001" /><path
           id="path3681"
           d="m 596.56,247.55 a 283.78,283.78 0 0 0 -6.1876,-21.939"
           style="fill:none;stroke-width:2;stroke-miterlimit:10"
           inkscape:connector-curvature="0" /><line
           id="line3683"
           style="fill:none;stroke-width:2;stroke-linecap:round;stroke-miterlimit:10"
           y2="219.55"
           x2="608.56"
           y1="225.55"
           x1="590.56" /><path
           id="path3687"
           d="m 600.93,269.65 a 283.78,283.78 0 0 0 -4.3654,-22.099"
           style="fill:none;stroke-width:2;stroke-miterlimit:10"
           inkscape:connector-curvature="0" /><line
           id="line3689"
           style="fill:none;stroke-width:2;stroke-linecap:round;stroke-miterlimit:10"
           y2="266.54999"
           x2="619.56"
           y1="269.54999"
           x1="601.56" /><path
           id="path3693"
           d="m 563.45,352.53 a 246,246 0 0 0 3.1083,-38.983"
           style="fill:none;stroke-width:2;stroke-miterlimit:10"
           inkscape:connector-curvature="0" /><line
           id="line3695"
           style="fill:none;stroke-width:2;stroke-miterlimit:10"
           y2="354.54999"
           x2="582.56"
           y1="352.54999"
           x1="563.56" /><path
           id="path3697"
           d="m 582.56,354.55 a 265.19,265.19 0 0 0 2.3536,-19.972"
           style="fill:none;stroke-width:2;stroke-miterlimit:10"
           inkscape:connector-curvature="0" /><line
           id="line3699"
           style="fill:none;stroke-width:2;stroke-miterlimit:10"
           y2="335.54999"
           x2="603.56"
           y1="334.54999"
           x1="584.92999" /><path
           id="path3701"
           d="m 603.56,335.55 a 283.85,283.85 0 0 0 0.8538,-22"
           style="fill:none;stroke-width:2;stroke-miterlimit:10"
           inkscape:connector-curvature="0" /><line
           id="line3703"
           style="fill:none;stroke-width:2;stroke-linecap:round;stroke-miterlimit:10"
           y2="313.54999"
           x2="623.56"
           y1="313.54999"
           x1="604.56" /><path
           id="path3707"
           d="m 601,357.46 a 283.85,283.85 0 0 0 2.5633,-21.912"
           style="fill:none;stroke-width:2;stroke-miterlimit:10"
           inkscape:connector-curvature="0" /><line
           id="line3709"
           style="fill:none;stroke-width:2;stroke-linecap:round;stroke-miterlimit:10"
           y2="360.54999"
           x2="619.56"
           y1="357.54999"
           x1="601.56" /><path
           id="path3713"
           d="m 572.74,395.6 a 265.19,265.19 0 0 0 9.826,-41.057"
           style="fill:none;stroke-width:2;stroke-miterlimit:10"
           inkscape:connector-curvature="0" /><line
           id="line3715"
           style="fill:none;stroke-width:2;stroke-linecap:round;stroke-miterlimit:10"
           y2="407.64001"
           x2="608.92999"
           y1="395.64001"
           x1="572.92999" /><path
           id="path3719"
           d="m 489.72,435.66 a 208.63,208.63 0 0 0 36.844,-89.112"
           style="fill:none;stroke-width:2;stroke-miterlimit:10"
           inkscape:connector-curvature="0" /><line
           id="line3721"
           style="fill:none;stroke-width:2;stroke-miterlimit:10"
           y2="469.37"
           x2="534.39001"
           y1="435.89999"
           x1="489.56" /><path
           id="path3723"
           d="m 534.56,469.55 a 264.82,264.82 0 0 0 22.061,-35.969"
           style="fill:none;stroke-width:2;stroke-miterlimit:10"
           inkscape:connector-curvature="0" /><line
           id="line3725"
           style="fill:none;stroke-width:2;stroke-linecap:round;stroke-miterlimit:10"
           y2="451.64001"
           x2="590.75"
           y1="433.64001"
           x1="556.75" /><path
           id="path3729"
           d="m 522.19,485.23 a 264.82,264.82 0 0 0 12.368,-15.687"
           style="fill:none;stroke-width:2;stroke-miterlimit:10"
           inkscape:connector-curvature="0" /><line
           id="line3731"
           style="fill:none;stroke-width:2;stroke-miterlimit:10"
           y2="497.54999"
           x2="536.56"
           y1="485.54999"
           x1="522.56" /><path
           id="path3733"
           d="m 536.56,497.55 a 283.75,283.75 0 0 0 13.605,-17.286"
           style="fill:none;stroke-width:2;stroke-miterlimit:10"
           inkscape:connector-curvature="0" /><line
           id="line3735"
           style="fill:none;stroke-width:2;stroke-linecap:round;stroke-miterlimit:10"
           y2="491.54999"
           x2="565.56"
           y1="480.54999"
           x1="550.56" /><path
           id="path3739"
           d="m 521.2,514.19 a 283.75,283.75 0 0 0 15.361,-16.639"
           style="fill:none;stroke-width:2;stroke-miterlimit:10"
           inkscape:connector-curvature="0" /><line
           id="line3741"
           style="fill:none;stroke-width:2;stroke-linecap:round;stroke-miterlimit:10"
           y2="527.54999"
           x2="534.56"
           y1="514.54999"
           x1="521.56" /><path
           id="path3745"
           d="M 409.75,458.85 A 170.5,170.5 0 0 0 490.561,326.54"
           style="fill:none;stroke-width:2;stroke-miterlimit:10"
           inkscape:connector-curvature="0" /><line
           id="line3747"
           style="fill:none;stroke-width:2;stroke-miterlimit:10"
           y2="555.20001"
           x2="468.56"
           y1="459.07001"
           x1="409.73999" /><path
           id="path3749"
           d="m 468.56,555.55 a 283.67,283.67 0 0 0 18.668,-12.457"
           style="fill:none;stroke-width:2;stroke-miterlimit:10"
           inkscape:connector-curvature="0" /><line
           id="line3751"
           style="fill:none;stroke-width:2;stroke-linecap:round;stroke-miterlimit:10"
           y2="558.54999"
           x2="498.56"
           y1="543.54999"
           x1="487.56" /><path
           id="path3755"
           d="m 449.42,566.26 a 283.67,283.67 0 0 0 19.146,-10.714"
           style="fill:none;stroke-width:2;stroke-miterlimit:10"
           inkscape:connector-curvature="0" /><line
           id="line3757"
           style="fill:none;stroke-width:2;stroke-linecap:round;stroke-miterlimit:10"
           y2="583.54999"
           x2="458.56"
           y1="566.54999"
           x1="449.56" /><path
           id="path3761"
           d="m 361.56,439.55 a 132.5,132.5 0 0 0 85,-167"
           style="fill:none;stroke-width:2;stroke-miterlimit:10"
           inkscape:connector-curvature="0" /><line
           id="line3763"
           style="fill:none;stroke-width:2;stroke-linecap:round;stroke-miterlimit:10"
           y2="601.54999"
           x2="414.56"
           y1="439.54999"
           x1="361.56" /><path
           id="path3767"
           d="M 329.57,426.63 A 113.44,113.44 0 0 0 432.56,295.55"
           style="fill:none;stroke-width:2;stroke-miterlimit:10"
           inkscape:connector-curvature="0" /><line
           id="line3769"
           style="fill:none;stroke-width:2;stroke-miterlimit:10"
           y2="596.54999"
           x2="342.56"
           y1="426.60999"
           x1="329.56" /><path
           id="path3771"
           d="m 342.56,596.55 a 283.85,283.85 0 0 0 21.912,-2.5633"
           style="fill:none;stroke-width:2;stroke-miterlimit:10"
           inkscape:connector-curvature="0" /><line
           id="line3773"
           style="fill:none;stroke-width:2;stroke-linecap:round;stroke-miterlimit:10"
           y2="612.54999"
           x2="367.56"
           y1="594.54999"
           x1="364.56" /><path
           id="path3777"
           d="m 342.56,596.55 a 283.85,283.85 0 0 1 -22,0.8538"
           style="fill:none;stroke-width:2;stroke-miterlimit:10"
           inkscape:connector-curvature="0" /><line
           id="line3779"
           style="fill:none;stroke-width:2;stroke-linecap:round;stroke-miterlimit:10"
           y2="616.54999"
           x2="320.56"
           y1="597.54999"
           x1="320.56" /><path
           id="path3783"
           d="m 297.45,385.9 a 75.954,75.954 0 0 0 98.112,-84.352"
           style="fill:none;stroke-width:2;stroke-miterlimit:10"
           inkscape:connector-curvature="0" /><line
           id="line3785"
           style="fill:none;stroke-width:2;stroke-miterlimit:10"
           y2="565.15997"
           x2="238.84"
           y1="386.10001"
           x1="297.39999" /><path
           id="path3787"
           d="m 238.56,565.55 a 265.01,265.01 0 0 0 41.028,9.8192"
           style="fill:none;stroke-width:2;stroke-miterlimit:10"
           inkscape:connector-curvature="0" /><line
           id="line3789"
           style="fill:none;stroke-width:2;stroke-linecap:round;stroke-miterlimit:10"
           y2="612.54999"
           x2="273.56"
           y1="575.54999"
           x1="279.56" /><path
           id="path3793"
           d="m 219.56,558.55 a 265.01,265.01 0 0 0 19.001,6.9965"
           style="fill:none;stroke-width:2;stroke-miterlimit:10"
           inkscape:connector-curvature="0" /><line
           id="line3795"
           style="fill:none;stroke-width:2;stroke-miterlimit:10"
           y2="575.54999"
           x2="211.56"
           y1="558.54999"
           x1="219.56" /><path
           id="path3797"
           d="m 211.56,575.55 a 283.77,283.77 0 0 0 21.065,7.8007"
           style="fill:none;stroke-width:2;stroke-miterlimit:10"
           inkscape:connector-curvature="0" /><line
           id="line3799"
           style="fill:none;stroke-width:2;stroke-linecap:round;stroke-miterlimit:10"
           y2="601.54999"
           x2="226.56"
           y1="583.54999"
           x1="232.56" /><path
           id="path3803"
           d="m 191.66,566.35 a 283.77,283.77 0 0 0 19.9,9.1961"
           style="fill:none;stroke-width:2;stroke-miterlimit:10"
           inkscape:connector-curvature="0" /><line
           id="line3805"
           style="fill:none;stroke-width:2;stroke-linecap:round;stroke-miterlimit:10"
           y2="583.54999"
           x2="182.56"
           y1="566.54999"
           x1="191.56" /><path
           id="path3809"
           d="m 277.57,350.54 a 56.719,56.719 0 0 0 98.993,-27.994"
           style="fill:none;stroke-width:2;stroke-miterlimit:10"
           inkscape:connector-curvature="0" /><line
           id="line3811"
           style="fill:none;stroke-width:2;stroke-miterlimit:10"
           y2="473.54999"
           x2="133.56"
           y1="350.54999"
           x1="277.56" /><path
           id="path3813"
           d="m 133.56,473.55 a 246.11,246.11 0 0 0 42.068,38.906"
           style="fill:none;stroke-width:2;stroke-miterlimit:10"
           inkscape:connector-curvature="0" /><line
           id="line3815"
           style="fill:none;stroke-width:2;stroke-linecap:round;stroke-miterlimit:10"
           y2="558.54999"
           x2="142.56"
           y1="512.54999"
           x1="175.56" /><path
           id="path3819"
           d="m 121.66,458.48 a 246.11,246.11 0 0 0 11.906,15.068"
           style="fill:none;stroke-width:2;stroke-miterlimit:10"
           inkscape:connector-curvature="0" /><line
           id="line3821"
           style="fill:none;stroke-width:2;stroke-miterlimit:10"
           y2="469.54999"
           x2="106.56"
           y1="458.54999"
           x1="121.56" /><path
           id="path3823"
           d="m 106.56,469.55 a 264.82,264.82 0 0 0 26.741,31.259"
           style="fill:none;stroke-width:2;stroke-miterlimit:10"
           inkscape:connector-curvature="0" /><line
           id="line3825"
           style="fill:none;stroke-width:2;stroke-linecap:round;stroke-miterlimit:10"
           y2="527.82001"
           x2="106.29"
           y1="500.82001"
           x1="133.28999" /><path
           id="path3829"
           d="m 94.988,452.28 a 264.82,264.82 0 0 0 11.574,17.262"
           style="fill:none;stroke-width:2;stroke-miterlimit:10"
           inkscape:connector-curvature="0" /><line
           id="line3831"
           style="fill:none;stroke-width:2;stroke-miterlimit:10"
           y2="461.54999"
           x2="78.561996"
           y1="452.54999"
           x1="94.561996" /><path
           id="path3833"
           d="m 78.562,461.55 a 283.67,283.67 0 0 0 12.457,18.668"
           style="fill:none;stroke-width:2;stroke-miterlimit:10"
           inkscape:connector-curvature="0" /><line
           id="line3835"
           style="fill:none;stroke-width:2;stroke-linecap:round;stroke-miterlimit:10"
           y2="491.54999"
           x2="75.561996"
           y1="480.54999"
           x1="90.561996" /><path
           id="path3839"
           d="m 67.848,442.4 a 283.67,283.67 0 0 0 10.714,19.146"
           style="fill:none;stroke-width:2;stroke-miterlimit:10"
           inkscape:connector-curvature="0" /><line
           id="line3841"
           style="fill:none;stroke-width:2;stroke-linecap:round;stroke-miterlimit:10"
           y2="451.54999"
           x2="50.562"
           y1="442.54999"
           x1="67.561996" /><path
           id="path3845"
           d="m 284.44,325.59 a 38.079,38.079 0 0 0 73.125,-3.0416"
           style="fill:none;stroke-width:2;stroke-miterlimit:10"
           inkscape:connector-curvature="0" /><line
           id="line3847"
           style="fill:none;stroke-width:2;stroke-linecap:round;stroke-miterlimit:10"
           y2="407.42001"
           x2="32.562"
           y1="325.67001"
           x1="284.06" /><line
           id="line3851"
           style="fill:none;stroke-width:2;stroke-miterlimit:10"
           y2="313.54999"
           x2="320.56"
           y1="313.54999"
           x1="320.56" /><line
           id="line3853"
           style="fill:none;stroke-width:2;stroke-linecap:round;stroke-miterlimit:10"
           y2="360.54999"
           x2="21.562"
           y1="313.54999"
           x1="320.56" /></g><g
         id="g252"
         transform="rotate(-90)"><path
           d="m -553.848,107.922 h 24.149 v -91.25 h -24.149 z m 61.77,0 h 24.148 V 36.887 h 24.145 V 16.672 h -72.438 v 20.215 h 24.145 z m 79.742,-44.36 c 2.246,-8.707 4.492,-19.656 6.457,-28.921 h 0.563 c 2.246,9.125 4.492,20.214 6.738,28.921 l 1.543,6.317 h -16.848 z m -35.098,44.36 h 24.707 l 4.493,-19.371 h 25.55 l 4.493,19.371 h 25.55 l -27.797,-91.25 h -29.199 z m 93.496,-45.063 11.793,-12.777 11.793,12.777 9.829,-7.16 -8.567,-15.023 15.867,-7.297 -3.793,-11.652 -16.984,3.507 -1.969,-17.265 h -12.351 l -1.965,17.125 -16.988,-3.367 -3.789,11.652 15.722,7.297 -8.422,15.023 z m 55.032,45.063 h 24.148 V 79.004 h 9.828 c 19.09,0 36.5,-9.688 36.5,-32.008 0,-23.023 -17.129,-30.324 -37.062,-30.324 h -33.414 z M -274.758,59.91 V 35.766 h 8.141 c 9.265,0 14.601,3.086 14.601,11.23 0,8.141 -4.492,12.914 -14.039,12.914 z m 61.207,48.012 h 24.149 V 71.703 h 27.234 v 36.219 h 24.145 v -91.25 h -24.145 v 33.973 h -27.234 V 16.672 h -24.149 z m 111.75,0 h 24.145 V 76.477 L -50.141,16.672 H -75.41 l -6.738,19.094 c -2.387,6.879 -4.774,13.195 -7.161,20.355 h -0.562 c -2.387,-7.16 -4.633,-13.476 -6.879,-20.355 l -6.738,-19.094 h -25.828 l 27.515,59.805 z"
           style="fill:none;stroke:#0d0c0a;stroke-width:4.38005;stroke-linecap:butt;stroke-linejoin:miter;stroke-miterlimit:2;stroke-dasharray:none;stroke-opacity:1"
           id="path254" /></g><path
         d="m 107.922,553.848 v -24.149 h -91.25 v 24.149 z m 0,-61.77 V 467.93 H 36.887 V 443.785 H 16.672 v 72.438 h 20.215 v -24.145 z m -44.36,-79.742 c -8.707,-2.246 -19.656,-4.492 -28.921,-6.457 v -0.563 c 9.125,-2.246 20.214,-4.492 28.921,-6.738 l 6.317,-1.543 v 16.848 z m 44.36,35.098 v -24.707 l -19.371,-4.493 v -25.55 l 19.371,-4.493 v -25.55 l -91.25,27.797 v 29.199 z M 62.859,353.938 50.082,342.145 62.859,330.352 55.699,320.523 40.676,329.09 33.379,313.223 21.727,317.016 25.234,334 7.969,335.969 v 12.351 l 17.125,1.965 -3.367,16.988 11.652,3.789 7.297,-15.722 15.023,8.422 z m 45.063,-55.032 V 274.758 H 79.004 v -9.828 c 0,-19.09 -9.688,-36.5 -32.008,-36.5 -23.023,0 -30.324,17.129 -30.324,37.062 v 33.414 z M 59.91,274.758 H 35.766 v -8.141 c 0,-9.265 3.086,-14.601 11.23,-14.601 8.141,0 12.914,4.492 12.914,14.039 z m 48.012,-61.207 V 189.402 H 71.703 v -27.234 h 36.219 v -24.145 h -91.25 v 24.145 h 33.973 v 27.234 H 16.672 v 24.149 z m 0,-111.75 V 77.656 H 76.477 L 16.672,50.141 V 75.41 l 19.094,6.738 c 6.879,2.387 13.195,4.774 20.355,7.161 v 0.562 c -7.16,2.387 -13.476,4.633 -20.355,6.879 l -19.094,6.738 v 25.828 l 59.805,-27.515 z"
         style="fill:#0d0c0a;fill-opacity:1;fill-rule:nonzero;stroke:none"
         id="path256" /><g
         id="g258"
         transform="rotate(-90)"><path
           d="m -558.934,102.836 h 24.145 v -91.25 h -24.145 z m 61.77,0 h 24.148 V 31.801 h 24.145 V 11.586 h -72.438 v 20.215 h 24.145 z m 79.738,-44.363 c 2.246,-8.703 4.492,-19.653 6.461,-28.918 h 0.559 c 2.246,9.125 4.492,20.215 6.738,28.918 l 1.547,6.316 h -16.848 z m -35.094,44.363 h 24.708 l 4.492,-19.375 h 25.55 l 4.493,19.375 h 25.55 l -27.796,-91.25 h -29.2 z m 93.497,-45.066 11.793,-12.774 11.792,12.774 9.825,-7.157 -8.563,-15.023 15.864,-7.301 -3.79,-11.652 -16.988,3.511 -1.965,-17.269 h -12.355 l -1.965,17.129 -16.984,-3.371 -3.793,11.652 15.726,7.301 -8.426,15.023 z m 55.031,45.066 h 24.144 V 73.914 h 9.828 c 19.094,0 36.5,-9.684 36.5,-32.008 0,-23.023 -17.125,-30.32 -37.062,-30.32 h -33.41 z m 24.144,-48.012 V 30.676 h 8.145 c 9.265,0 14.601,3.09 14.601,11.23 0,8.145 -4.492,12.918 -14.039,12.918 z m 61.211,48.012 h 24.145 V 66.617 h 27.234 v 36.219 h 24.149 v -91.25 h -24.149 v 33.973 h -27.234 V 11.586 h -24.145 z m 111.746,0 h 24.149 V 71.391 l 27.515,-59.805 h -25.269 l -6.738,19.09 c -2.387,6.879 -4.774,13.195 -7.161,20.355 h -0.562 c -2.387,-7.16 -4.633,-13.476 -6.879,-20.355 l -6.738,-19.09 h -25.832 l 27.515,59.805 z"
           style="fill:none;stroke:#0d0c0a;stroke-width:4.38005;stroke-linecap:butt;stroke-linejoin:miter;stroke-miterlimit:2;stroke-dasharray:none;stroke-opacity:1"
           id="path260" /></g><path
         d="m 102.836,558.934 v -24.145 h -91.25 v 24.145 z m 0,-61.77 V 473.016 H 31.801 V 448.871 H 11.586 v 72.438 H 31.801 V 497.164 Z M 58.473,417.426 C 49.77,415.18 38.82,412.934 29.555,410.965 v -0.559 c 9.125,-2.246 20.215,-4.492 28.918,-6.738 l 6.316,-1.547 v 16.848 z m 44.363,35.094 V 427.812 L 83.461,423.32 v -25.55 l 19.375,-4.493 v -25.55 l -91.25,27.796 v 29.2 z M 57.77,359.023 44.996,347.23 57.77,335.438 l -7.157,-9.825 -15.023,8.563 -7.301,-15.864 -11.652,3.79 3.511,16.988 -17.269,1.965 v 12.355 l 17.129,1.965 -3.371,16.984 11.652,3.793 7.301,-15.726 15.023,8.426 z m 45.066,-55.031 V 279.848 H 73.914 v -9.828 c 0,-19.094 -9.684,-36.5 -32.008,-36.5 -23.023,0 -30.32,17.125 -30.32,37.062 v 33.41 z M 54.824,279.848 H 30.676 v -8.145 c 0,-9.265 3.09,-14.601 11.23,-14.601 8.145,0 12.918,4.492 12.918,14.039 z m 48.012,-61.211 V 194.492 H 66.617 v -27.234 h 36.219 v -24.149 h -91.25 v 24.149 h 33.973 v 27.234 H 11.586 v 24.145 z m 0,-111.746 V 82.742 H 71.391 L 11.586,55.227 v 25.269 l 19.09,6.738 c 6.879,2.387 13.195,4.774 20.355,7.161 v 0.562 c -7.16,2.387 -13.476,4.633 -20.355,6.879 l -19.09,6.738 v 25.832 l 59.805,-27.515 z"
         style="fill:#152fa3;fill-opacity:1;fill-rule:nonzero;stroke:none"
         id="path262" /><g
         id="g264"
         transform="rotate(-90)"><path
           d="m -203.258,151.996 h 34.957 v -10.945 h -8.054 c -2.129,0 -5.625,0.304 -8.055,0.609 6.535,-6.687 13.832,-15.203 13.832,-22.953 0,-9.578 -6.84,-15.809 -16.57,-15.809 -7.145,0 -11.704,2.434 -16.719,7.754 l 6.992,6.993 c 2.281,-2.282 4.711,-4.563 7.902,-4.563 3.496,0 5.93,2.055 5.93,6.383 0,6.539 -8.816,14.594 -20.215,25.082 z m 65.039,0.91 c 10.641,0 17.938,-8.738 17.938,-25.23 0,-16.418 -7.297,-24.778 -17.938,-24.778 -10.636,0 -17.933,8.286 -17.933,24.778 0,16.492 7.297,25.23 17.933,25.23 z m 0,-10.031 c -3.039,0 -5.621,-2.434 -5.621,-15.199 0,-12.77 2.582,-14.746 5.621,-14.746 3.043,0 5.625,1.976 5.625,14.746 0,12.765 -2.582,15.199 -5.625,15.199 z m 29.477,9.121 h 34.961 v -10.945 h -8.059 c -2.129,0 -5.625,0.304 -8.055,0.609 6.536,-6.687 13.833,-15.203 13.833,-22.953 0,-9.578 -6.84,-15.809 -16.571,-15.809 -7.14,0 -11.703,2.434 -16.719,7.754 l 6.993,6.993 c 2.281,-2.282 4.711,-4.563 7.906,-4.563 3.492,0 5.926,2.055 5.926,6.383 0,6.539 -8.817,14.594 -20.215,25.082 z m 63.219,0.91 c 10.031,0 18.695,-5.015 18.695,-14.136 0,-6.079 -3.801,-9.879 -9.274,-11.551 v -0.305 c 5.168,-2.277 7.754,-5.773 7.754,-10.41 0,-8.742 -6.84,-13.606 -17.48,-13.606 -5.93,0 -10.945,2.282 -15.656,6.231 l 6.535,7.906 c 3.039,-2.586 5.32,-3.953 8.511,-3.953 3.27,0 5.016,1.52 5.016,4.41 0,3.344 -2.43,5.469 -10.488,5.469 v 9.121 c 10.109,0 12.008,2.129 12.008,5.777 0,3.039 -2.735,4.559 -6.993,4.559 -3.417,0 -6.914,-1.824 -9.878,-4.559 l -5.926,8.207 c 3.644,4.258 9.347,6.84 17.176,6.84 z"
           style="fill:none;stroke:#0d0c0a;stroke-width:2.3712;stroke-linecap:butt;stroke-linejoin:miter;stroke-miterlimit:2;stroke-dasharray:none;stroke-opacity:1"
           id="path266" /></g><path
         d="m 151.996,203.258 v -34.957 h -10.945 v 8.054 c 0,2.129 0.304,5.625 0.609,8.055 -6.687,-6.535 -15.203,-13.832 -22.953,-13.832 -9.578,0 -15.809,6.84 -15.809,16.57 0,7.145 2.434,11.704 7.754,16.719 l 6.993,-6.992 c -2.282,-2.281 -4.563,-4.711 -4.563,-7.902 0,-3.496 2.055,-5.93 6.383,-5.93 6.539,0 14.594,8.816 25.082,20.215 z m 0.91,-65.039 c 0,-10.641 -8.738,-17.938 -25.23,-17.938 -16.418,0 -24.778,7.297 -24.778,17.938 0,10.636 8.286,17.933 24.778,17.933 16.492,0 25.23,-7.297 25.23,-17.933 z m -10.031,0 c 0,3.039 -2.434,5.621 -15.199,5.621 -12.77,0 -14.746,-2.582 -14.746,-5.621 0,-3.043 1.976,-5.625 14.746,-5.625 12.765,0 15.199,2.582 15.199,5.625 z m 9.121,-29.477 V 73.781 h -10.945 v 8.059 c 0,2.129 0.304,5.625 0.609,8.055 -6.687,-6.536 -15.203,-13.833 -22.953,-13.833 -9.578,0 -15.809,6.84 -15.809,16.571 0,7.14 2.434,11.703 7.754,16.719 l 6.993,-6.993 c -2.282,-2.281 -4.563,-4.711 -4.563,-7.906 0,-3.492 2.055,-5.926 6.383,-5.926 6.539,0 14.594,8.817 25.082,20.215 z m 0.91,-63.219 c 0,-10.031 -5.015,-18.695 -14.136,-18.695 -6.079,0 -9.879,3.801 -11.551,9.274 h -0.305 c -2.277,-5.168 -5.773,-7.754 -10.41,-7.754 -8.742,0 -13.606,6.84 -13.606,17.48 0,5.93 2.282,10.945 6.231,15.656 l 7.906,-6.535 c -2.586,-3.039 -3.953,-5.32 -3.953,-8.511 0,-3.27 1.52,-5.016 4.41,-5.016 3.344,0 5.469,2.43 5.469,10.488 h 9.121 c 0,-10.109 2.129,-12.008 5.777,-12.008 3.039,0 4.559,2.735 4.559,6.993 0,3.417 -1.824,6.914 -4.559,9.878 l 8.207,5.926 c 4.258,-3.644 6.84,-9.347 6.84,-17.176 z"
         style="fill:#0d0c0a;fill-opacity:1;fill-rule:nonzero;stroke:none"
         id="path268" /><g
         id="g270"
         transform="rotate(-90)"><path
           d="m -206.012,149.242 h 34.957 v -10.945 h -8.054 c -2.129,0 -5.625,0.305 -8.055,0.609 6.535,-6.691 13.832,-15.203 13.832,-22.953 0,-9.578 -6.84,-15.808 -16.57,-15.808 -7.145,0 -11.703,2.433 -16.719,7.753 l 6.992,6.989 c 2.281,-2.278 4.711,-4.559 7.902,-4.559 3.497,0 5.93,2.051 5.93,6.383 0,6.539 -8.816,14.594 -20.215,25.082 z m 65.039,0.91 c 10.641,0 17.938,-8.738 17.938,-25.23 0,-16.418 -7.297,-24.777 -17.938,-24.777 -10.64,0 -17.933,8.285 -17.933,24.777 0,16.492 7.293,25.23 17.933,25.23 z m 0,-10.031 c -3.039,0 -5.621,-2.433 -5.621,-15.199 0,-12.77 2.582,-14.746 5.621,-14.746 3.043,0 5.625,1.976 5.625,14.746 0,12.766 -2.582,15.199 -5.625,15.199 z m 29.477,9.121 h 34.957 v -10.945 h -8.055 c -2.129,0 -5.625,0.305 -8.054,0.609 6.535,-6.691 13.832,-15.203 13.832,-22.953 0,-9.578 -6.84,-15.808 -16.571,-15.808 -7.14,0 -11.703,2.433 -16.718,7.753 l 6.992,6.989 c 2.281,-2.278 4.711,-4.559 7.902,-4.559 3.496,0 5.93,2.051 5.93,6.383 0,6.539 -8.817,14.594 -20.215,25.082 z m 63.219,0.91 c 10.031,0 18.695,-5.015 18.695,-14.136 0,-6.078 -3.801,-9.879 -9.273,-11.551 v -0.305 c 5.167,-2.281 7.753,-5.777 7.753,-10.41 0,-8.742 -6.839,-13.605 -17.48,-13.605 -5.93,0 -10.945,2.281 -15.656,6.23 l 6.535,7.906 c 3.039,-2.586 5.32,-3.953 8.512,-3.953 3.269,0 5.015,1.52 5.015,4.41 0,3.344 -2.429,5.469 -10.488,5.469 v 9.121 c 10.109,0 12.008,2.129 12.008,5.777 0,3.04 -2.735,4.559 -6.992,4.559 -3.418,0 -6.914,-1.824 -9.879,-4.559 l -5.926,8.207 c 3.644,4.258 9.348,6.84 17.176,6.84 z"
           style="fill:none;stroke:#0d0c0a;stroke-width:2.3712;stroke-linecap:butt;stroke-linejoin:miter;stroke-miterlimit:2;stroke-dasharray:none;stroke-opacity:1"
           id="path272" /></g><path
         d="m 149.242,206.012 v -34.957 h -10.945 v 8.054 c 0,2.129 0.305,5.625 0.609,8.055 -6.691,-6.535 -15.203,-13.832 -22.953,-13.832 -9.578,0 -15.808,6.84 -15.808,16.57 0,7.145 2.433,11.703 7.753,16.719 l 6.989,-6.992 c -2.278,-2.281 -4.559,-4.711 -4.559,-7.902 0,-3.497 2.051,-5.93 6.383,-5.93 6.539,0 14.594,8.816 25.082,20.215 z m 0.91,-65.039 c 0,-10.641 -8.738,-17.938 -25.23,-17.938 -16.418,0 -24.777,7.297 -24.777,17.938 0,10.64 8.285,17.933 24.777,17.933 16.492,0 25.23,-7.293 25.23,-17.933 z m -10.031,0 c 0,3.039 -2.433,5.621 -15.199,5.621 -12.77,0 -14.746,-2.582 -14.746,-5.621 0,-3.043 1.976,-5.625 14.746,-5.625 12.766,0 15.199,2.582 15.199,5.625 z m 9.121,-29.477 V 76.539 h -10.945 v 8.055 c 0,2.129 0.305,5.625 0.609,8.054 -6.691,-6.535 -15.203,-13.832 -22.953,-13.832 -9.578,0 -15.808,6.84 -15.808,16.571 0,7.14 2.433,11.703 7.753,16.718 l 6.989,-6.992 c -2.278,-2.281 -4.559,-4.711 -4.559,-7.902 0,-3.496 2.051,-5.93 6.383,-5.93 6.539,0 14.594,8.817 25.082,20.215 z m 0.91,-63.219 c 0,-10.031 -5.015,-18.695 -14.136,-18.695 -6.078,0 -9.879,3.801 -11.551,9.273 h -0.305 c -2.281,-5.167 -5.777,-7.753 -10.41,-7.753 -8.742,0 -13.605,6.839 -13.605,17.48 0,5.93 2.281,10.945 6.23,15.656 l 7.906,-6.535 c -2.586,-3.039 -3.953,-5.32 -3.953,-8.512 0,-3.269 1.52,-5.015 4.41,-5.015 3.344,0 5.469,2.429 5.469,10.488 h 9.121 c 0,-10.109 2.129,-12.008 5.777,-12.008 3.04,0 4.559,2.735 4.559,6.992 0,3.418 -1.824,6.914 -4.559,9.879 l 8.207,5.926 c 4.258,-3.644 6.84,-9.348 6.84,-17.176 z"
         style="fill:#00a7ff;fill-opacity:1;fill-rule:nonzero;stroke:none"
         id="path274" /></g></g></svg>
